<svg enable-background="new 0 0 64 64" viewBox="0 0 64 64" xmlns="http://www.w3.org/2000/svg"><circle cx="32" cy="32" fill="#76c2af" r="32"/><path d="m47.8 30h-7.8v-12c0-2.2-1.8-4-4-4h-8c-2.2 0-4 1.8-4 4v12h-7.8c-2.7 0-3.5 1.9-1.7 4.1l14.3 18.1c1.8 2.3 4.7 2.3 6.5 0l14.3-18.1c1.7-2.2 1-4.1-1.8-4.1z" fill="#231f20" opacity=".2"/><g fill="#fff"><path d="m24 16c0-2.2 1.8-4 4-4h8c2.2 0 4 1.8 4 4v24c0 2.2-1.8 4-4 4h-8c-2.2 0-4-1.8-4-4z"/><path d="m47.8 28c2.7 0 3.5 1.9 1.7 4.1l-14.2 18.2c-1.8 2.3-4.7 2.3-6.5 0l-14.3-18.2c-1.8-2.3-1-4.1 1.7-4.1z"/></g></svg>